<svg version="1.1" xmlns="http://www.w3.org/2000/svg" width="16" height="16" viewBox="0 0 16 16">
    <path fill="grey" d="M8,1C4.13,1,1,4.13,1,8s3.13,7,7,7,7-3.13,7-7S11.87,1,8,1ZM8,13.75c-3.18,0-5.75-2.57-5.75-5.75S4.82,2.25,8,2.25s5.75,2.57,5.75,5.75-2.57,5.75-5.75,5.75Z"/>
    <path fill="#fd7e14" d="M6.88,5c0-.62.5-1.12,1.12-1.12s1.12.5,1.12,1.12-.5,1.12-1.12,1.12-1.12-.5-1.12-1.12ZM9.27,13.6c.46-.11.91-.27,1.32-.48l-1.59-3.19v-1.37c1.2-.34,2.77-1.05,2.85-1.09.09-.04.15-.13.15-.23v-1c0-.14-.11-.25-.25-.25h0s-.07,0-.1.02c-.75.34-2.88,1.23-3.65,1.23s-2.89-.89-3.65-1.23c-.08-.03-.17-.03-.24.02-.07.05-.12.12-.11.21v1c0,.1.06.19.15.23.09.04,1.65.74,2.85,1.08v1.38l-1.59,3.19c.42.21.86.37,1.33.48l1.27-2.55,1.27,2.54Z"/>
</svg>